<?xml version="1.0" standalone="no"?>
<!DOCTYPE svg PUBLIC "-//W3C//DTD SVG 20010904//EN"
 "http://www.w3.org/TR/2001/REC-SVG-20010904/DTD/svg10.dtd">
<svg version="1.0" xmlns="http://www.w3.org/2000/svg"
 width="500.000000pt" height="500.000000pt" viewBox="0 0 500.000000 500.000000"
 preserveAspectRatio="xMidYMid meet">

<g transform="translate(0.000000,500.000000) scale(0.100000,-0.100000)"
fill="#000000" stroke="none">
<path d="M1690 4990 c-23 -15 -3 -39 79 -94 39 -26 70 -50 68 -53 -3 -2 -53 4
-113 14 -130 20 -275 24 -281 6 -6 -16 190 -210 268 -265 92 -66 182 -113 274
-143 44 -15 128 -53 187 -85 115 -62 233 -114 286 -125 17 -4 32 -10 32 -15 0
-17 -27 -55 -40 -58 -24 -4 -241 -234 -367 -387 -123 -150 -186 -240 -227
-322 -55 -108 -25 -99 119 40 65 61 116 107 114 102 -2 -6 -30 -62 -61 -125
-60 -120 -97 -233 -85 -264 13 -33 47 3 134 139 45 70 87 133 93 139 19 19 27
-11 35 -133 7 -130 14 -152 42 -135 20 12 46 72 110 254 83 237 146 390 159
390 8 0 49 -10 91 -21 182 -51 318 -14 579 156 46 30 100 58 121 64 59 17 244
14 267 -4 26 -20 46 -19 46 1 0 9 -11 47 -25 85 -59 165 -129 261 -216 299
-31 13 -95 27 -160 34 -59 7 -115 19 -124 26 -34 28 -112 147 -180 273 -87
162 -100 173 -203 170 -43 -1 -120 -7 -173 -14 -150 -19 -389 -6 -598 30 -186
33 -227 36 -251 21z m205 -44 c284 -54 399 -61 660 -41 262 20 260 20 315
-103 50 -112 121 -221 193 -298 l59 -63 -4 -65 c-1 -35 0 -62 5 -59 4 2 7 26
7 53 0 27 3 51 8 53 4 3 6 -28 5 -69 -1 -43 2 -72 8 -69 5 4 9 2 9 -3 0 -5 12
-12 28 -15 15 -2 74 -14 132 -25 58 -11 124 -24 148 -27 40 -6 42 -9 42 -40 0
-44 -18 -56 -102 -66 -99 -11 -160 -31 -223 -73 -31 -20 -68 -36 -91 -38 -30
-2 -41 -9 -54 -33 -12 -21 -34 -36 -86 -56 -141 -55 -139 -55 -400 -33 l-71 6
-43 -98 c-24 -55 -76 -191 -114 -304 -39 -113 -75 -205 -81 -205 -6 0 -13 49
-17 114 -6 118 -19 150 -53 138 -8 -4 -55 -67 -103 -142 -48 -74 -91 -135 -96
-135 -32 0 48 195 148 362 53 89 65 118 49 118 -4 0 -65 -57 -135 -127 -71
-70 -128 -123 -128 -116 0 15 144 215 255 356 49 61 136 159 192 217 l103 105
54 -58 54 -58 48 29 c141 83 274 131 364 133 25 0 54 4 65 9 13 5 -22 9 -96 9
-135 1 -384 25 -476 47 -111 26 -311 106 -326 131 -3 5 63 6 145 5 150 -4 242
3 234 16 -2 4 -62 9 -133 10 -230 4 -400 34 -521 92 -102 49 -200 113 -272
179 l-55 51 88 -40 c121 -56 306 -108 477 -136 162 -27 170 -28 170 -15 0 5
-30 14 -67 21 -110 20 -381 88 -478 120 -99 34 -269 119 -267 135 2 15 75 22
145 14 213 -27 289 -40 318 -55 47 -24 211 -84 229 -83 8 0 4 5 -9 10 -164 65
-378 174 -419 212 -23 22 -15 38 17 31 9 -2 75 -14 146 -28z"/>
<path d="M2892 4138 c-18 -18 -15 -38 6 -38 23 0 64 29 57 41 -9 13 -49 11
-63 -3z"/>
<path d="M2993 4068 c-46 -22 -37 -65 10 -53 32 9 51 30 43 50 -6 17 -22 18
-53 3z"/>
<path d="M2697 4023 c-14 -14 -7 -43 11 -43 21 0 42 18 42 37 0 13 -41 18 -53
6z"/>
<path d="M2794 3949 c-10 -17 13 -36 27 -22 12 12 4 33 -11 33 -5 0 -12 -5
-16 -11z"/>
<path d="M1176 3251 c-3 -5 -91 -66 -196 -136 -138 -93 -196 -138 -212 -164
-12 -20 -30 -46 -41 -58 -31 -35 -16 -41 60 -22 53 13 86 29 124 59 55 43 73
49 83 24 9 -23 7 -172 -2 -178 -7 -4 -126 -29 -197 -40 -16 -3 -70 -14 -118
-26 -48 -11 -96 -22 -105 -23 -50 -10 -105 -31 -90 -34 10 -3 42 2 70 11 29 8
69 17 88 20 19 3 97 18 173 34 75 15 136 23 134 18 -2 -6 -55 -21 -118 -33
-431 -86 -549 -115 -549 -139 0 -27 29 -27 198 1 375 60 495 75 478 58 -4 -5
-12 -8 -18 -8 -6 0 -19 -33 -28 -73 -10 -40 -22 -78 -27 -83 -5 -5 -52 -21
-104 -35 -81 -23 -100 -25 -137 -15 -23 6 -47 11 -54 11 -14 0 -5 -121 15
-205 8 -33 20 -93 27 -133 9 -55 20 -83 44 -115 18 -24 31 -48 29 -54 -5 -13
186 -23 230 -11 16 4 88 10 161 14 l134 7 12 -38 13 -39 18 23 c11 13 19 29
19 35 0 7 14 28 30 46 32 36 36 50 19 81 -8 16 -7 25 6 39 12 13 15 27 10 50
-4 19 -2 36 5 45 7 8 13 57 15 112 1 54 7 136 12 183 6 47 6 89 2 94 -11 12
-114 -5 -232 -38 -68 -19 -89 -22 -93 -12 -8 20 14 138 28 153 7 7 36 15 65
18 28 3 77 11 110 19 32 8 74 17 93 20 172 26 274 52 265 66 -3 4 2 13 10 20
21 18 19 40 -5 40 -16 0 -65 17 -79 27 -3 2 4 10 15 17 31 24 9 29 -49 12 -30
-9 -68 -16 -84 -16 -15 0 -53 -7 -83 -16 -56 -16 -123 -33 -150 -39 -8 -2 -15
-4 -15 -5 0 -1 -7 -3 -15 -5 -8 -2 -25 -7 -37 -11 -21 -6 -23 -3 -23 37 -1 24
-10 69 -21 99 -37 99 -37 97 41 180 68 73 89 108 75 129 -8 13 -22 14 -29 2z
m-156 -350 c0 -71 -6 -62 -13 18 -3 41 -2 59 4 50 5 -8 9 -38 9 -68z m500 -41
c0 -5 -5 -10 -11 -10 -5 0 -7 5 -4 10 3 6 8 10 11 10 2 0 4 -4 4 -10z m-50 -9
c0 -12 -55 -31 -88 -31 -35 0 -21 11 35 26 27 7 49 13 51 13 1 1 2 -3 2 -8z
m-247 -58 c-7 -2 -19 -2 -25 0 -7 3 -2 5 12 5 14 0 19 -2 13 -5z m-67 -12 c-7
-11 -46 -21 -46 -12 0 13 13 21 32 21 11 0 17 -4 14 -9z m117 -418 c-21 -115
-61 -275 -71 -285 -5 -5 -41 -13 -81 -19 -39 -5 -104 -14 -143 -20 -40 -7
-103 -14 -139 -16 l-66 -5 -21 54 c-28 72 -65 226 -58 244 3 8 19 14 36 14 40
0 73 17 63 33 -5 8 -2 8 9 -1 12 -10 28 -9 84 4 94 22 132 28 181 28 22 1 40
4 38 7 -2 3 22 10 53 17 31 6 66 13 77 16 55 11 54 13 38 -71z m-413 13 c0 -2
-11 -6 -25 -8 -14 -3 -25 -1 -25 3 0 5 11 9 25 9 14 0 25 -2 25 -4z m-170
-151 c0 -8 -4 -15 -10 -15 -5 0 -10 7 -10 15 0 8 5 15 10 15 6 0 10 -7 10 -15z
m30 -125 c0 -5 -2 -10 -4 -10 -3 0 -8 5 -11 10 -3 6 -1 10 4 10 6 0 11 -4 11
-10z m480 -50 c0 -15 -23 -22 -62 -18 l-33 4 35 11 c46 15 60 15 60 3z"/>
<path d="M2475 3184 c-208 -63 -373 -145 -413 -204 -23 -35 -23 -35 -3 -38 28
-4 90 16 120 39 29 23 61 25 61 4 0 -9 -7 -29 -15 -44 -8 -16 -12 -31 -9 -33
9 -10 -28 -118 -75 -220 -12 -26 -25 -66 -29 -90 -6 -31 -14 -46 -32 -55 -37
-19 -90 -94 -84 -120 5 -18 0 -24 -36 -34 -27 -8 -55 -28 -79 -56 -21 -24 -42
-43 -46 -43 -7 0 -3 80 14 250 l6 65 113 58 c97 50 116 64 128 93 35 83 16 98
-77 58 -68 -28 -76 -29 -59 -9 17 21 1 19 -39 -6 -18 -11 -36 -17 -40 -14 -3
4 -6 91 -6 193 0 185 0 187 -22 190 -35 5 -49 -38 -83 -259 -18 -112 -33 -206
-35 -207 -2 -2 -18 -11 -37 -21 -18 -9 -32 -22 -31 -28 2 -7 -4 -10 -12 -7
-18 7 -47 -14 -39 -27 3 -5 -8 -17 -25 -27 -40 -22 -43 -33 -21 -63 l19 -24
49 18 c27 9 55 17 61 17 15 0 14 -67 -4 -170 -26 -150 -38 -249 -32 -264 4 -9
17 -16 30 -16 29 0 47 -18 47 -47 0 -42 20 -24 51 43 31 69 126 197 217 293
62 65 63 79 -3 -164 -43 -159 -95 -376 -95 -397 0 -24 147 33 157 60 4 9 12
22 19 27 7 6 18 37 24 70 7 33 19 85 26 115 16 58 54 255 59 305 2 17 5 31 6
33 3 4 5 15 13 77 4 33 21 119 36 190 16 72 36 176 46 233 l18 102 40 11 c23
7 70 20 105 30 35 11 67 19 71 19 17 0 30 -95 30 -212 0 -68 5 -182 10 -254
11 -129 1 -408 -14 -433 -5 -8 -18 -2 -42 19 -48 42 -64 40 -57 -7 3 -21 12
-45 19 -54 8 -8 14 -23 14 -32 0 -8 20 -46 45 -83 34 -50 42 -70 33 -76 -10
-6 -10 -8 2 -8 8 0 28 9 44 19 16 11 35 17 42 14 24 -9 51 68 77 222 53 306
52 628 -3 849 -11 43 -20 81 -20 83 0 2 -4 2 -8 -1 -5 -3 -19 8 -30 24 -19 25
-75 51 -107 49 -5 0 -46 -11 -90 -25z m242 -321 c-2 -16 -4 -3 -4 27 0 30 2
43 4 28 2 -16 2 -40 0 -55z m10 -90 c-3 -10 -5 -2 -5 17 0 19 2 27 5 18 2 -10
2 -26 0 -35z"/>
<path d="M3940 3168 c-9 -14 -15 -51 -16 -95 -1 -39 -7 -95 -13 -125 -15 -74
-24 -341 -11 -333 5 3 10 -4 9 -17 0 -13 2 -33 6 -45 6 -17 1 -25 -22 -36 -25
-13 -184 -125 -237 -166 -65 -52 -118 -109 -115 -125 4 -16 10 -15 63 13 69
37 81 39 41 6 -47 -39 -21 -40 33 -1 101 73 80 33 -33 -62 -32 -27 -34 -30
-10 -17 17 10 40 27 52 38 33 29 36 17 14 -44 -26 -73 -51 -163 -51 -186 0
-20 68 -93 87 -93 6 0 13 6 16 13 3 9 12 8 39 -4 26 -13 55 -16 124 -13 49 2
100 7 114 10 13 3 47 7 75 10 27 2 82 9 120 14 39 5 123 15 188 21 139 15 159
27 132 78 -15 30 -15 31 10 43 54 24 25 31 -112 25 -76 -4 -150 -9 -165 -13
-49 -11 -33 21 22 44 28 12 50 26 50 32 0 7 -9 24 -21 38 -19 25 -19 27 -3 39
13 9 14 13 4 13 -11 0 -11 3 -2 12 20 20 14 38 -13 38 -14 0 -28 6 -31 14 -3
8 -13 12 -25 9 -18 -5 -19 -2 -13 23 4 16 7 29 8 30 1 0 50 11 110 23 107 23
166 51 132 64 -9 4 -12 14 -9 26 5 19 -31 91 -45 91 -4 0 -70 -22 -146 -50
-105 -37 -143 -47 -153 -39 -25 22 -12 46 52 98 36 28 63 56 60 60 -7 13 20
32 37 26 11 -4 18 2 22 18 3 15 21 33 43 44 31 16 39 26 41 53 3 26 0 32 -12
27 -26 -10 -44 3 -66 47 -11 23 -36 61 -55 83 -35 41 -122 103 -143 103 -7 0
-12 -16 -12 -40 0 -30 7 -47 25 -65 13 -14 28 -25 33 -25 11 0 42 -71 42 -97
0 -12 8 -31 19 -44 l18 -23 12 23 c8 14 10 38 6 64 -6 39 -6 41 9 22 8 -11 16
-26 16 -33 0 -7 7 -12 16 -10 39 7 19 -20 -42 -57 -36 -22 -98 -64 -137 -93
-70 -52 -72 -52 -79 -30 -3 13 -7 93 -8 178 0 85 -7 187 -14 225 -14 72 -49
165 -63 165 -5 0 -15 -10 -23 -22z m63 -563 c4 -8 2 -17 -3 -20 -6 -4 -10 3
-10 14 0 25 6 27 13 6z m167 -33 c0 -5 -12 -14 -27 -21 l-28 -11 24 20 c26 22
31 24 31 12z m-200 -103 c-31 -24 -60 -41 -60 -35 0 6 72 56 80 56 3 0 -6 -9
-20 -21z m92 -24 c1 -13 -68 -47 -87 -43 -11 2 -2 12 27 31 42 27 59 30 60 12z
m-57 -74 c-6 -5 -27 -14 -48 -21 -30 -9 -38 -16 -35 -33 3 -20 8 -22 53 -19
44 3 89 11 148 28 11 3 17 0 17 -9 0 -9 -24 -25 -55 -38 -48 -20 -55 -26 -55
-51 0 -28 -30 -68 -51 -68 -5 0 -8 -4 -5 -9 4 -5 34 -3 72 6 47 11 69 12 77 4
12 -12 6 -15 -77 -34 -33 -7 -61 -18 -63 -24 -2 -6 4 -10 14 -9 9 2 38 -2 63
-9 37 -9 46 -16 48 -36 2 -14 -3 -30 -10 -36 -7 -5 -58 -15 -113 -22 -55 -7
-118 -15 -139 -18 l-39 -6 6 91 c5 79 4 90 -10 85 -11 -5 -14 -1 -10 13 3 10
13 47 22 81 20 71 45 99 112 123 54 19 92 25 78 11z m-275 -66 c-19 -14 -39
-25 -44 -25 -13 0 55 49 68 50 6 0 -5 -11 -24 -25z"/>
<path d="M3368 2902 c4 -117 1 -145 -33 -307 -21 -98 -39 -190 -40 -204 -2
-14 -15 -66 -30 -116 -14 -49 -28 -119 -30 -155 -3 -36 -6 -76 -7 -90 -3 -23
0 -25 35 -22 l37 3 0 -46 c0 -69 23 -58 52 25 9 25 16 54 16 65 0 26 33 118
44 126 5 3 13 48 19 99 6 52 22 144 35 204 33 148 40 294 21 415 -10 56 -23
101 -32 110 -15 15 -16 14 -10 -11 9 -37 -1 -35 -20 2 -10 20 -23 30 -38 30
-22 0 -22 -1 -19 -128z"/>
<path d="M3021 2966 c-23 -23 -41 -45 -41 -50 0 -4 -12 -23 -26 -41 -50 -66
-90 -141 -111 -210 -19 -61 -30 -134 -23 -157 5 -16 8 -28 9 -41 0 -6 18 -31
40 -55 48 -53 82 -55 171 -11 63 32 260 208 260 234 0 6 -33 23 -74 37 l-75
25 -53 -55 c-63 -65 -127 -114 -139 -106 -14 8 -11 67 6 114 19 54 19 58 -2
63 -15 4 -15 6 4 12 13 4 21 11 18 15 -3 5 -1 11 5 15 13 8 51 82 48 92 -3 8
18 40 60 93 59 75 -7 97 -77 26z"/>
<path d="M3804 2931 c-17 -10 -47 -38 -66 -62 -47 -58 -128 -191 -122 -201 3
-5 16 -8 28 -8 13 0 37 -7 52 -15 38 -19 64 -19 64 1 0 9 23 70 50 135 67 160
66 194 -6 150z"/>
<path d="M1555 2600 c-3 -5 -2 -10 4 -10 5 0 13 5 16 10 3 6 2 10 -4 10 -5 0
-13 -4 -16 -10z"/>
<path d="M950 1700 c-28 -28 -25 -48 15 -107 51 -76 52 -116 3 -139 l-33 -15
30 6 c75 16 83 63 25 149 -22 32 -40 62 -40 67 0 11 30 39 41 39 6 0 7 5 4 10
-9 15 -23 12 -45 -10z"/>
<path d="M1184 1648 l7 -64 -35 4 -36 4 0 55 c0 39 -4 54 -12 51 -25 -8 -22
-248 3 -248 5 0 9 27 9 60 0 66 12 80 49 61 15 -9 21 -23 23 -63 2 -30 8 -53
16 -56 9 -3 12 15 11 70 -1 110 -12 181 -28 186 -11 4 -12 -7 -7 -60z"/>
<path d="M1318 1698 c8 -8 12 -49 12 -118 0 -69 -4 -110 -12 -118 -9 -9 -1
-12 38 -11 41 0 45 2 25 10 -23 9 -23 11 -20 129 l4 120 -29 0 c-23 0 -27 -3
-18 -12z"/>
<path d="M1498 1693 c16 -15 22 -39 30 -126 6 -60 13 -111 16 -115 16 -16 19
18 8 116 -9 91 -9 109 3 118 21 16 8 24 -38 24 -38 0 -39 0 -19 -17z"/>
<path d="M1720 1707 c0 -2 -16 -57 -35 -123 -19 -65 -35 -122 -35 -126 0 -18
21 -6 32 17 9 19 19 25 45 25 26 0 36 -6 45 -25 6 -14 15 -25 20 -25 13 0 10
38 -14 153 -19 87 -26 107 -40 107 -10 0 -18 -2 -18 -3z m42 -122 c11 -50 5
-65 -26 -65 -35 0 -40 15 -26 66 16 56 41 56 52 -1z"/>
<path d="M2095 1700 c-12 -20 -19 -250 -8 -250 6 0 14 28 19 62 5 34 15 63 21
65 7 3 23 -18 36 -49 26 -57 61 -96 71 -79 4 5 1 13 -5 17 -13 7 -69 123 -69
141 0 7 14 28 31 48 18 20 28 39 24 43 -4 4 -24 -12 -45 -35 -21 -24 -40 -43
-44 -43 -3 0 -6 15 -6 33 0 40 -14 65 -25 47z"/>
<path d="M2316 1701 c-3 -5 1 -11 9 -15 12 -4 15 -26 15 -109 0 -67 -4 -107
-12 -115 -9 -9 -2 -12 32 -12 38 0 41 2 26 13 -22 16 -35 181 -18 214 9 17 9
22 -4 27 -22 9 -42 7 -48 -3z"/>
<path d="M2490 1580 c0 -80 4 -130 10 -130 6 0 10 25 10 55 0 30 4 55 8 55 5
0 21 -28 36 -62 33 -74 46 -64 16 11 -22 56 -26 96 -10 106 6 3 10 22 10 40 0
36 -20 55 -59 55 -20 0 -21 -5 -21 -130z m53 98 c13 -20 0 -68 -18 -68 -11 0
-15 12 -15 46 0 46 13 55 33 22z"/>
<path d="M2670 1700 c0 -5 5 -10 11 -10 7 0 9 -40 7 -120 l-3 -120 33 0 c30 0
32 1 18 16 -12 12 -16 38 -16 114 0 61 4 101 11 106 8 4 7 9 -2 15 -19 12 -59
11 -59 -1z"/>
<path d="M2946 1694 c-25 -24 -19 -56 19 -110 47 -65 47 -106 0 -132 -20 -11
-20 -11 2 -12 26 0 51 23 59 57 5 19 -3 38 -35 83 -22 33 -41 66 -41 74 0 8
12 24 26 35 25 19 25 21 6 21 -11 0 -28 -7 -36 -16z"/>
<path d="M3216 1663 c-3 -27 -8 -77 -12 -113 -8 -80 -18 -100 -49 -100 -35 0
-45 27 -46 122 -2 127 -17 153 -18 31 -1 -59 4 -113 11 -128 22 -50 91 -44
113 9 18 42 32 226 17 226 -5 0 -13 -21 -16 -47z"/>
<path d="M3355 1700 c3 -5 15 -10 26 -10 10 0 19 -4 19 -9 0 -4 -20 -54 -45
-111 -25 -57 -45 -107 -45 -111 0 -5 17 -8 38 -8 23 1 28 3 15 6 -30 6 -29 15
12 110 19 45 38 95 41 112 6 30 5 31 -30 31 -22 0 -35 -4 -31 -10z"/>
<path d="M3625 1698 c-2 -7 -8 -59 -14 -116 -10 -106 -20 -132 -51 -132 -32 0
-41 27 -47 134 -3 58 -10 106 -15 106 -9 0 -9 -149 1 -195 13 -60 98 -73 119
-18 9 24 32 180 32 221 0 6 -5 12 -10 12 -6 0 -12 -6 -15 -12z"/>
<path d="M3737 1693 c-3 -5 -8 -63 -12 -129 l-7 -122 -67 -16 c-123 -30 -213
-102 -271 -216 -39 -77 -54 -162 -48 -273 6 -105 29 -174 84 -254 112 -163
376 -215 536 -105 l45 31 32 -39 c28 -35 37 -40 74 -40 24 0 48 5 55 12 14 14
17 414 4 435 -16 25 -69 33 -231 33 -116 0 -171 -4 -179 -12 -16 -16 -16 -160
0 -176 7 -7 36 -12 65 -12 57 0 64 -9 33 -40 -25 -25 -61 -34 -104 -26 -70 13
-99 79 -99 231 -1 131 13 184 54 219 61 52 136 26 167 -56 24 -64 31 -66 168
-44 115 18 128 27 119 75 -26 138 -173 256 -336 268 l-74 5 3 89 c2 49 7 89
11 89 4 0 18 -34 30 -76 29 -98 47 -97 74 4 10 39 23 72 28 72 5 0 9 -41 9
-91 0 -68 3 -90 13 -87 8 3 13 34 15 96 5 171 -27 209 -63 76 -24 -86 -39
-122 -47 -108 -3 5 -11 34 -18 64 -21 90 -50 145 -63 123z m154 -313 c104 -32
186 -106 217 -197 13 -38 20 -34 -108 -54 -55 -8 -75 -9 -78 0 -27 81 -86 131
-155 131 -94 0 -141 -57 -159 -193 -20 -150 11 -293 74 -340 36 -27 114 -33
161 -14 42 18 79 70 75 107 -3 24 -7 25 -70 28 l-68 3 0 59 0 60 63 0 c34 0
113 -3 175 -7 l112 -6 0 -194 0 -193 -25 0 c-17 0 -34 13 -57 45 -18 24 -39
44 -47 45 -7 0 -27 -11 -43 -25 -55 -47 -109 -68 -184 -73 -189 -12 -342 101
-390 288 -22 87 -15 223 16 303 73 192 287 291 491 227z"/>
<path d="M4014 1687 c-2 -7 -3 -67 -2 -133 l3 -119 27 -3 c15 -2 35 1 45 7 15
9 13 10 -15 11 l-33 0 3 63 c3 56 5 62 26 65 26 4 20 22 -9 22 -16 0 -19 7
-19 40 0 36 3 40 25 40 14 0 25 5 25 10 0 15 -70 12 -76 -3z"/>
<path d="M1928 1593 c12 -2 30 -2 40 0 9 3 -1 5 -23 4 -22 0 -30 -2 -17 -4z"/>
<path d="M2732 1424 c-139 -37 -232 -128 -283 -275 -27 -81 -31 -246 -7 -325
64 -208 226 -316 453 -301 245 16 394 182 397 442 2 193 -69 339 -203 418 -92
54 -244 72 -357 41z m300 -61 c148 -70 218 -195 218 -391 0 -189 -81 -325
-230 -384 -81 -32 -241 -31 -325 2 -82 32 -164 114 -194 194 -85 229 -11 480
169 571 72 37 114 45 212 41 71 -3 98 -9 150 -33z"/>
<path d="M2782 1240 c-53 -33 -74 -94 -80 -230 -6 -148 8 -220 53 -269 32 -35
36 -36 103 -36 82 0 103 14 135 85 38 85 33 321 -9 402 -34 65 -135 89 -202
48z m140 -40 c37 -29 53 -98 53 -230 0 -172 -30 -230 -117 -230 -87 0 -125 91
-115 275 5 109 22 163 58 189 32 22 91 20 121 -4z"/>
<path d="M863 1419 c-18 -18 -19 -859 -1 -877 15 -15 444 -17 537 -1 168 27
251 110 251 249 -1 79 -53 159 -126 192 -22 10 -21 12 19 42 148 111 96 319
-95 381 -70 23 -565 35 -585 14z m582 -59 c174 -68 194 -235 39 -326 -54 -32
-58 -58 -11 -73 46 -15 107 -69 123 -107 30 -70 10 -157 -47 -209 -66 -59
-112 -68 -401 -73 l-258 -4 0 412 0 412 248 -4 c230 -4 251 -6 307 -28z"/>
<path d="M1126 1244 c-12 -11 -16 -36 -16 -94 0 -93 7 -100 92 -100 110 0 168
37 168 107 0 44 -44 88 -97 97 -68 11 -131 7 -147 -10z m159 -38 c45 -19 57
-59 27 -89 -17 -16 -34 -21 -89 -21 l-68 -1 -3 49 c-2 27 -1 55 2 62 7 19 86
18 131 0z"/>
<path d="M1140 913 c-26 -10 -30 -25 -30 -110 0 -97 5 -103 99 -103 67 0 106
12 138 42 48 45 37 125 -21 155 -32 17 -159 28 -186 16z m166 -51 c20 -13 32
-47 24 -67 -14 -37 -38 -48 -108 -49 l-67 -1 -3 63 -3 62 73 0 c40 0 78 -4 84
-8z"/>
<path d="M1710 1411 c-6 -13 -10 -168 -10 -435 0 -364 2 -417 16 -430 13 -14
57 -16 332 -16 182 0 323 4 332 10 12 7 15 31 15 105 0 74 -3 98 -15 105 -8 5
-95 10 -192 10 l-178 0 0 316 c0 198 -4 322 -10 335 -10 17 -22 19 -145 19
-123 0 -135 -2 -145 -19z m250 -330 c0 -177 4 -321 10 -335 l10 -26 185 0 185
0 0 -75 0 -75 -302 2 -303 3 -3 408 -2 407 110 0 110 0 0 -309z"/>
</g>
</svg>
